# xmcd CD database file
#
# Track frame offsets:
#	151
#	14048
#	32167
#	41598
#	50864
#	61864
#	73256
#	83930
#	93513
#	109232
#	119475
#	129401
#	143941
#	156194
#	165944
#	175904
#	186906
#
# Disc length: 2708 seconds
#
# Revision: 2
# Processed by: cddbd v1.4PL0 Copyright (c) Steve Scherf et al.
# Submitted via: CDex 1.40Release
#
DISCID=f70a9211
DTITLE=Willie Nelson - Legendary Willie Nelson  [CD2)
DYEAR=2003
DGENRE=Country
TTITLE0=The Year That Clayton Delaney Died (w/ Waylon Jennings)
TTITLE1=A Couple More Years
TTITLE2=Within Your Crowd
TTITLE3=Blackjack Country Chain
TTITLE4=Darkness On The Face Of The Earth
TTITLE5=Pick Up The Tempo (w/ Waylon Jennings)
TTITLE6=Laying My Burdens Down
TTITLE7=Mountain Dew
TTITLE8=What Can You Do To Me Now
TTITLE9=To Make A Long Story Short (She's Gone)
TTITLE10=Hello Walls
TTITLE11=Write Your Own Songs (w/ Waylon Jennings)
TTITLE12=It Should Be Easier Now
TTITLE13=So Much To Do
TTITLE14=Some Other World
TTITLE15=Waltz Across Texas
TTITLE16=Will You Remember
EXTD=YEAR: 2003 ID3G: 2
EXTT0=
EXTT1=
EXTT2=
EXTT3=
EXTT4=
EXTT5=
EXTT6=
EXTT7=
EXTT8=
EXTT9=
EXTT10=
EXTT11=
EXTT12=
EXTT13=
EXTT14=
EXTT15=
EXTT16=
PLAYORDER=
